<svg width="200" height="200" viewBox="0 0 200 200" fill="none" xmlns="http://www.w3.org/2000/svg">
<circle cx="99.9998" cy="99.9998" r="85.2547" fill="#55BC8A"/>
<path fill-rule="evenodd" clip-rule="evenodd" d="M101.588 185.24C147.94 184.393 185.255 146.554 185.255 99.9999C185.255 53.4457 147.94 15.6067 101.588 14.7596V185.24Z" fill="white" fill-opacity="0.4"/>
<mask id="mask0_43_2178" style="mask-type:alpha" maskUnits="userSpaceOnUse" x="14" y="14" width="172" height="172">
<circle cx="99.9998" cy="99.9998" r="85.2547" fill="#55BC8A"/>
</mask>
<g mask="url(#mask0_43_2178)">
<path d="M51.2517 68.5394L82.7124 100L51.2517 131.461V112.584H13.499V87.4158H51.2517V68.5394Z" fill="white"/>
<path d="M151.926 112.584V131.461L120.465 100L151.926 68.5394V87.4158H189.679V112.584H151.926Z" fill="white"/>
<path d="M89.0047 46.2057H70.1284L101.589 14.7451L133.05 46.2057H114.173V83.9585H89.0047V46.2057Z" fill="#324558"/>
<path d="M89.0047 153.78H70.1284L101.589 185.24L133.05 153.78H114.173V116.027H89.0047V153.78Z" fill="#324558"/>
<path d="M51.2517 68.3207L82.7124 99.7813L51.2517 131.242V112.366H13.499V87.1971H51.2517V68.3207Z" fill="white"/>
<path d="M151.926 112.366V131.242L120.465 99.7813L151.926 68.3207V87.1971H189.679V112.366H151.926Z" fill="white"/>
</g>
</svg>
