<svg width="200" height="200" viewBox="0 0 200 200" fill="none" xmlns="http://www.w3.org/2000/svg">
<g clip-path="url(#clip0_111_3995)">
<path d="M196.094 21.4517H3.90576V88.7174H196.094V21.4517Z" fill="#55BC8A"/>
<path d="M46.6283 42.7671H59.9712V67.4002H46.6283V42.7671Z" fill="white"/>
<path d="M77.7618 42.7671H91.1047V67.4002H77.7618V42.7671Z" fill="white"/>
<path d="M108.895 42.7671H122.238V67.4002H108.895V42.7671Z" fill="white"/>
<path d="M140.029 42.7671H153.372V67.4002H140.029V42.7671Z" fill="white"/>
<path d="M196.093 21.4517H176.874V88.7174H196.093V21.4517Z" fill="#324558"/>
<path d="M23.1246 21.4517H3.90576V88.7174H23.1246V21.4517Z" fill="#324558"/>
<path d="M196.093 111.285H3.90527V178.551H196.093V111.285Z" fill="#99D7B9"/>
<path d="M196.093 111.285H176.874V178.551H196.093V111.285Z" fill="#324558"/>
<path d="M23.1241 111.285H3.90527V178.551H23.1241V111.285Z" fill="#324558"/>
<path d="M98.7739 138.232H46.6283V151.602H98.7739V138.232Z" fill="white"/>
<path d="M155.919 144.917C155.919 136.981 149.485 130.548 141.549 130.548C133.613 130.548 127.18 136.981 127.18 144.917C127.18 152.853 133.613 159.286 141.549 159.286C149.485 159.286 155.919 152.853 155.919 144.917Z" fill="white"/>
</g>
<defs>
<clipPath id="clip0_111_3995">
<rect x="3.90576" y="21.4517" width="192.188" height="157.097" rx="8.21103" fill="white"/>
</clipPath>
</defs>
</svg>
