<svg width="228" height="30" xmlns="http://www.w3.org/2000/svg" xmlns:xlink="http://www.w3.org/1999/xlink"><defs><path id="a" d="M0 0h22.535v8.674H0z"/></defs><g fill="none" fill-rule="evenodd"><path d="m120.535 17.81 3.59-7.036 1.187 7.037h-4.777Zm1.752-13.286-11.4 21.137h5.676l1.847-3.674h7.601l.595 3.674h5.672l-4.181-21.137h-5.81ZM70.35 17.418a7.334 7.334 0 0 1-1.578 1.85c-.622.522-1.31.93-2.054 1.219a6.25 6.25 0 0 1-2.287.436c-.777 0-1.491-.145-2.138-.436a4.431 4.431 0 0 1-1.623-1.22 4.708 4.708 0 0 1-.933-1.849c-.187-.71-.21-1.486-.065-2.327a6.64 6.64 0 0 1 .859-2.325 7.5 7.5 0 0 1 1.565-1.852 7.111 7.111 0 0 1 2.039-1.22 6.29 6.29 0 0 1 2.287-.432c.777 0 1.491.144 2.138.433a4.598 4.598 0 0 1 1.638 1.22c.445.524.76 1.14.946 1.851.186.71.206 1.486.064 2.325a6.635 6.635 0 0 1-.858 2.327m4.587-10.26c-.831-1.008-1.894-1.797-3.19-2.37-1.298-.567-2.769-.853-4.416-.853-1.666 0-3.239.286-4.72.854a13.449 13.449 0 0 0-3.974 2.37 14.11 14.11 0 0 0-2.94 3.546 12.903 12.903 0 0 0-1.588 4.386c-.269 1.57-.239 3.031.092 4.388.329 1.354.906 2.536 1.727 3.547.824 1.008 1.88 1.797 3.166 2.367 1.287.57 2.763.854 4.428.854a13.05 13.05 0 0 0 4.705-.854 13.528 13.528 0 0 0 4.002-2.367 13.846 13.846 0 0 0 2.952-3.547 12.925 12.925 0 0 0 1.593-4.388c.266-1.568.236-3.032-.092-4.386-.331-1.354-.911-2.536-1.745-3.547M110.822 21.006h-10.77l.623-3.644h10.416l.797-4.652h-10.42l.605-3.532h10.77l.794-4.654H97.546l-3.61 21.137 16.1-.003zM147.885 17.205 141.67 4.523h-5.321l-3.61 21.137h5.322l2.205-12.682 6.215 12.682h5.294l3.61-21.137h-5.292z" fill="#006AFF"/><path d="M165.168 20.866c-.64.356-1.628.533-2.97.533h-1.869l.767-4.485h1.87c1.338 0 2.267.179 2.784.532.52.356.712.926.578 1.71-.135.784-.52 1.357-1.16 1.71Zm-2.673-12.139h1.677c1.666 0 2.382.685 2.148 2.049-.234 1.364-1.182 2.046-2.847 2.046h-1.678l.7-4.095Zm9.144 10.795c.11-.637.14-1.235.09-1.795a3.627 3.627 0 0 0-.46-1.513 3.285 3.285 0 0 0-1.108-1.137c-.483-.306-1.09-.535-1.824-.685.84-.488 1.51-1.08 2-1.782.491-.7.827-1.583 1.009-2.648.298-1.755.04-3.102-.777-4.037-.816-.934-2.168-1.402-4.05-1.402h-8.629l-3.606 21.137h9.251c1.085 0 2.086-.132 3-.393a7.313 7.313 0 0 0 2.411-1.178 6.8 6.8 0 0 0 1.743-1.934c.465-.766.784-1.642.95-2.633ZM203.35 12.765c-.407-.15-.823-.289-1.244-.42a5.778 5.778 0 0 1-1.115-.463 2.21 2.21 0 0 1-.749-.63c-.174-.244-.229-.55-.167-.926.092-.54.386-.98.876-1.317.493-.336 1.08-.505 1.77-.505a4.05 4.05 0 0 1 1.623.35c.54.235 1.058.593 1.553 1.079l2.85-4.286a11.408 11.408 0 0 0-2.957-1.277 11.735 11.735 0 0 0-3.104-.433c-1.085 0-2.095.166-3.029.502a7.823 7.823 0 0 0-2.469 1.417 8.1 8.1 0 0 0-1.785 2.185c-.48.851-.808 1.8-.988 2.847-.179 1.046-.166 1.91.033 2.591.199.682.52 1.247.958 1.695.44.451.966.81 1.58 1.08.615.272 1.247.52 1.897.742a28.06 28.06 0 0 1 1.384.563c.378.167.677.35.896.545.222.197.363.413.433.645.07.234.077.51.023.829-.09.522-.384.988-.88 1.4-.494.412-1.176.616-2.045.616-.76 0-1.498-.177-2.215-.533-.717-.353-1.414-.896-2.086-1.625l-3.034 4.43c1.936 1.588 4.199 2.382 6.785 2.382 1.25 0 2.394-.172 3.44-.518 1.045-.346 1.961-.831 2.748-1.458a7.824 7.824 0 0 0 1.931-2.255 8.88 8.88 0 0 0 1.033-2.945c.274-1.608.095-2.91-.54-3.91s-1.77-1.797-3.405-2.397" fill="#181818"/><path d="M90.329 3.935c-1.432 0-2.843.277-4.242.827a13.61 13.61 0 0 0-3.825 2.3 14.173 14.173 0 0 0-2.96 3.502 12.669 12.669 0 0 0-1.645 4.472c-.276 1.626-.234 3.124.127 4.498.363 1.374.95 2.561 1.767 3.562a8.347 8.347 0 0 0 3.024 2.324c1.2.553 2.504.827 3.918.827.687 0 1.394-.07 2.126-.21.729-.139 1.525-.36 2.392-.656l.577-.2 1.11-6.5c-1.613 1.495-3.27 2.242-4.97 2.242-.78 0-1.479-.15-2.096-.45a4.255 4.255 0 0 1-1.54-1.233 4.597 4.597 0 0 1-.852-1.85c-.16-.708-.167-1.485-.023-2.326.14-.822.411-1.588.814-2.3.401-.71.889-1.322 1.466-1.835a6.77 6.77 0 0 1 1.96-1.22 5.978 5.978 0 0 1 2.29-.447c1.809 0 3.195.776 4.16 2.325l1.12-6.559a12.135 12.135 0 0 0-2.341-.826 10.337 10.337 0 0 0-2.357-.267" fill="#006AFF"/><path d="M190.264 21.224c-.864-.171-2.549-.266-5.424.418l.655 4.097h5.672l-.903-4.515Z" fill="#181818"/><path d="m190.03 19.986-.921-4.654c-1.371.022-3.089.231-5.22.769-.233.06-.472.122-.716.19a27.273 27.273 0 0 1-3.27.689l3.113-6.126.667 4.1c2.13-.538 3.848-.747 5.222-.772l-1.92-9.578h-5.806l-11.4 21.137h5.673l2.046-4.025a31.524 31.524 0 0 0 6.128-1.063c.34-.094.667-.174.98-.249 2.875-.684 4.56-.59 5.424-.418" fill="#181818"/><path d="M218.507 12.883c-4.222 1.105-7.435 1-8.836.869l-.752 4.542c.4.033.866.057 1.399.067 2.08.04 5.135-.149 8.816-1.115 3.492-.913 5.55-.856 6.606-.682l.754-4.562c-1.772-.187-4.353-.07-7.987.881" fill="#006AFF"/><path d="M219.599 4.704c-4.035 1.056-7.146 1.009-8.637.887l-1.128 6.974c.989.092 2.863.169 5.35-.174l.395-2.432a35.03 35.03 0 0 0 4.647-.891c3.724-.974 5.814-.844 6.803-.645l.756-4.575c-1.777-.219-4.413-.132-8.186.856M217.489 20.767a29.785 29.785 0 0 1-3.674.722l.364-2.23c-1.551.177-2.89.219-3.968.2-.52-.01-.978-.036-1.374-.066l-1.132 6.77c.44.038.973.07 1.595.083 2.08.04 5.135-.15 8.816-1.115 3.293-.862 5.31-.86 6.414-.71l.752-4.552c-1.765-.16-4.289-.02-7.793.898" fill="#181818"/><path d="M24.976 30A41.121 41.121 0 0 1 29 28.539a41.583 41.583 0 0 1 16.848-1.593V21.55a46.94 46.94 0 0 0-17.463 1.578c-.349.097-.697.199-1.043.308-.46.14-.918.29-1.376.449-.901.306-1.785.64-2.654.995L24.976 30Z" fill="#07C846"/><path d="M45.849 4.045v16.158a48.342 48.342 0 0 0-20.318 2.412c-.889.304-1.78.588-2.673.851A64.32 64.32 0 0 1 0 25.956V9.793A48.264 48.264 0 0 0 17.882 8.15a49.058 49.058 0 0 0 2.434-.764 65.113 65.113 0 0 1 2.452-.787 64.368 64.368 0 0 1 23.08-2.553" fill="#0181FD"/><g><mask id="b" fill="#fff"><use xlink:href="#a"/></mask><path d="M20.872 0a41.121 41.121 0 0 1-4.024 1.46A41.583 41.583 0 0 1 0 3.053V8.45a46.94 46.94 0 0 0 17.462-1.578c.349-.097.697-.199 1.043-.308.46-.14.919-.289 1.377-.448.9-.306 1.784-.64 2.653-.996L20.872 0Z" fill="#FFA005" mask="url(#b)"/></g></g></svg>