<?xml version="1.0" encoding="UTF-8"?>
<svg version="1.1" viewBox="0 0 800 800" width="1280" height="1280" xmlns="http://www.w3.org/2000/svg">
<path transform="translate(309,14)" d="m0 0h12l68 5h28l45-4 26-1 16 1 19 4 19 8 16 10 16 13 11 9 15 14 11 9 10 8 16 11 15 9 22 13 11 7 14 10 13 11 11 12 8 13 8 17 8 26 11 48 7 23 10 24 12 28 8 22 5 18v38l-7 23-8 21-18 42-7 21-8 33-7 29-8 24-8 16-8 11-9 10-10 9-17 12-27 16-23 14-14 10-10 8-14 12-13 12-22 18-15 10-17 8-16 5-11 2h-41l-45-4h-38l-43 4h-39l-19-4-19-8-13-8-16-12-13-11-13-12-14-12-20-15-26-16-27-16-14-10-13-11-9-9-10-14-8-16-8-24-14-59-9-27-17-39-10-28-5-20v-29l7-26 9-24 16-37 9-27 6-24 8-35 8-24 11-21 9-11 13-13 18-13 21-13 27-16 12-8 13-10 14-12 11-10 8-7 17-14 15-10 15-8 18-6 12-2z" fill="#316CE8"/>
<path transform="translate(309,14)" d="m0 0h12l68 5h28l45-4 26-1 16 1 19 4 19 8 16 10 16 13 11 9 15 14 11 9 10 8 16 11 15 9 22 13 11 7 14 10 13 11 11 12 8 13 8 17 8 26 11 48 7 23 10 24 12 28 8 22 5 18v38l-7 23-8 21-18 42-7 21-8 33-7 29-8 24-8 16-8 11-9 10-10 9-17 12-27 16-23 14-14 10-10 8-14 12-13 12-22 18-15 10-17 8-16 5-11 2h-41l-45-4h-38l-43 4h-39l-19-4-19-8-13-8-16-12-13-11-13-12-14-12-20-15-26-16-27-16-14-10-13-11-9-9-10-14-8-16-8-24-14-59-9-27-17-39-10-28-5-20v-29l7-26 9-24 16-37 9-27 6-24 8-35 8-24 11-21 9-11 13-13 18-13 21-13 27-16 12-8 13-10 14-12 11-10 8-7 17-14 15-10 15-8 18-6 12-2zm70 47-30 3-26 5-26 7-22 8-18 8-16 8-18 10-15 10-19 14-14 12-12 11-14 14-9 11-9 10-10 14-14 22-10 18-9 19-11 29-8 29-5 25-3 27v48l4 36 6 27 7 24 7 19 9 20 12 23 12 19 14 19 12 14 7 8 23 23 11 9 14 11 16 11 15 9 22 12 23 10 20 7 24 7 25 5 24 3 14 1h37l31-3 27-5 26-7 25-9 18-8 25-13 19-12 19-14 11-9 10-9 8-7 12-12 7-8 9-11 15-20 12-19 13-24 11-25 11-33 6-25 4-26 2-22v-37l-3-31-5-27-7-26-9-25-8-18-10-20-12-20-12-17-13-16-7-8-12-13-9-9-8-7-13-11-16-12-17-11-21-12-23-11-15-6-24-8-24-6-22-4-31-3z" fill="#316CE8"/>
<path transform="translate(379,61)" d="m0 0h40l31 3 31 6 28 8 19 7 20 9 23 12 19 12 14 10 22 18 16 15 8 8 7 8 11 13 12 16 12 19 10 18 12 25 9 24 7 24 6 28 3 25 1 13v37l-3 31-6 31-7 24-9 25-11 24-12 22-14 21-13 17-9 11-15 16-9 9-8 7-11 9-17 13-17 11-21 12-25 12-24 9-24 7-23 5-29 4-14 1h-37l-32-3-27-5-25-7-20-7-24-10-21-11-23-14-19-14-14-12-10-9-7-6-7-8-8-8-9-11-14-18-11-17-12-21-12-25-8-21-7-23-6-26-4-29-1-12v-48l3-27 6-29 9-31 13-32 13-25 14-22 13-18 10-11 9-11 20-20 11-9 12-10 18-13 20-12 20-11 23-10 22-8 30-8 30-5zm3 29-26 3-26 5-22 6-23 8-20 9-23 12-14 9-14 10-10 8-11 9-25 25-9 11-11 14-10 15-12 21-8 16-8 19-8 24-7 30-4 27-1 12v37l3 25 6 31 8 26 8 21 12 25 8 14 12 18 13 17 10 11 7 8 16 16 22 18 15 10 16 10 23 12 16 7 25 9 24 6 22 4 25 3h38l32-4 28-6 26-8 22-9 23-11 20-12 18-13 10-8 10-9 8-7 15-15 7-8 13-17 14-21 14-25 11-25 10-30 7-32 3-23 1-12v-30l-3-29-5-26-6-23-10-27-12-25-10-18-10-15-9-12-8-10-12-14-14-14-8-7-16-13-17-12-20-12-15-8-16-7-27-10-27-7-22-4-26-3z" fill="#FCFDFD"/>
<path transform="translate(392,256)" d="m0 0h15l12 4 10 8 6 9 3 7v19l-4 10-7 9-11 8-1 2v11l2 1h25l8-3h6l8 5 2 3v10l-4 6-4 3h-9l-4-2h-30v122l29-4 16-5 8-4 9-7 8-8 3-6-5-2-2-4 8-8 8-7 4-5h2l1-3 7-6 3 1 4 13 5 21v7l-10 2-9 14-8 10-9 10-11 9-13 8-21 10-12 4-12 3-9 9-8 6-5-3-13-12-21-7-21-10-15-10-12-11-9-9-9-13-8-13-10-2-1-5 11-33 2-3 5 1 7 8 13 13 5 7v4l-6 2 2 5 9 11 8 7 11 5 19 5 17 3 9 1v-84l-1-38h-30l-5 3h-9l-7-4-3-6v-7l4-6 4-3 8-1 7 3h30l2-1v-11l-13-8-7-7-5-9-2-9v-12l4-11 8-10 10-7z" fill="#FCFDFD"/>
<path transform="translate(214,521)" d="m0 0 5 2 4 7-7 19 8-1h14l6 5-1 4-14 12-13 10-5 5-4-1-4-6 1-5 10-7 1-3h-11l-3-3 1-6 2-6-7 4-6 6-6-1-4-5 2-4 10-9 14-11z" fill="#FCFDFD"/>
<path transform="translate(433,142)" d="m0 0 9 1 17 4 7 5 2 4v10l-6 8-4 3 3 10 1 5-1 3h-6l-5-3-3-5-2-11-7-1-1 8-2 5-5 2-6-2v-7l7-34z" fill="#FCFDFD"/>
<path transform="translate(257,396)" d="m0 0 18 1 15 3 25 10 14 5 9 2 9 1h17l18-3 1 4-2 2-15 3h-24l-15-3-17-6-12-6-19-5-8-1h-20l-16 3-13 5-16 7-13 4-11 2h-25l-15-3-18-6-6-4-2-5 3-1 16 7 19 5 9 1h17l15-3 17-7 20-8 14-3z" fill="#FCFDFD"/>
<path transform="translate(584,525)" d="m0 0 8 1 5 3 4 6 1 8 15 2 2 2-1 4-6 5h-19l2 4 7 6 1 4-5 6-5-1-18-14-13-10 1-5 10-13 8-7z" fill="#FCFDFD"/>
<path transform="translate(323,607)" d="m0 0 7 1 4 4 7 18v2h2l3-14 2-4 9 1 2 2-2 10-9 32-1 1h-5l-6-6-5-15-1-6h-2l-1 6-4 12-1 1h-7l-3-2v-7l9-33z" fill="#FCFDFD"/>
<path transform="translate(368,141)" d="m0 0h4l2 6-1 5-21 4 1 4h8l12-1 2 2 1 8-5 2-15 3 1 5 16-2h6l2 4v5l-3 2-23 4h-8l-2-3-6-36v-5l7-3z" fill="#FCFDFD"/>
<path transform="translate(273,581)" d="m0 0 6 1 8 6-1 8-9 36-1 2-5-1-3-3-1-9-11-6-5-1-7 1-5-3 1-5 7-6 9-7 14-11z" fill="#FCFDFD"/>
<path transform="translate(617,448)" d="m0 0h26l20 4 13 5 1 7-5 1-10-4-12-3-7-1h-25l-13 2-20 8-14 6-18 4h-29l-10-2-1-4 3-3 11 1h24l18-4 20-9 18-6z" fill="#FCFDFD"/>
<path transform="translate(475,605)" d="m0 0 9 1 6 3 3 4-1 4h-18l-5 1v10l4 11 6 2 7-3 2-5-7 1-4-5v-6l17-4 3 4 2 6v9l-5 8-7 5-3 1h-13l-6-4-5-6-3-8-1-4v-11l5-8 10-5z" fill="#FCFDFD"/>
<path transform="translate(401,619)" d="m0 0h11l6 8 11 29 1 7-2 1h-7l-6-6h-16l-2 4-4 3h-7l-1-3 12-38z" fill="#FCFDFD"/>
<path transform="translate(538,570)" d="m0 0 5 1 2 3-1 5-14 10 1 3 6-1 11-7 4 2 2 2v5l-10 8-4 1 1 5 5-1 13-8 4 1 3 3-1 5-18 13-6 4-4-1-13-19-8-11-2-3 1-4 14-10z" fill="#FCFDFD"/>
<path transform="translate(397,274)" d="m0 0 10 1 6 4 6 7 1 3v10l-4 7-6 5-8 3-8-1-7-4-6-8-1-7 2-8 4-6 5-4z" fill="#316CE8"/>
<path transform="translate(274,173)" d="m0 0h8l8 5 2 4-4 3-7 1h-10l-4 5 1 7 7 10 1 1h7l5-5 4-8 5-4 4 4v10l-6 9-10 6-3 1h-8l-8-4-7-8-4-9v-13l3-6 6-5 6-3z" fill="#FCFDFD"/>
<path transform="translate(248,448)" d="m0 0h22l1 5-2 3-22 1-14 3-17 7-18 7-14 3h-30l-17-4-11-4-3-5v-4l7 1 13 5 15 3h24l17-4 31-13z" fill="#FCFDFD"/>
<path transform="translate(256,354)" d="m0 0h11l15 2 12 3 13 5 15 6 14 4 6 1h27l10-3 4 1-4 4-12 3h-25l-21-5-27-11-13-4-14-2h-13l-17 3-17 6-13 6-16 5-10 2h-22l-16-3-17-6-7-4v-3l6 1 12 5 16 4 7 1h23l19-5 29-12 13-3z" fill="#FCFDFD"/>
<path transform="translate(626,396)" d="m0 0h10l20 3 18 6 8 4 2 2v5l-5-1-14-6-13-4-13-2h-19l-18 4-13 5-18 8-20 4h-24l-5-2-1-4h30l16-4 21-9 17-6z" fill="#FCFDFD"/>
<path transform="translate(521,171)" d="m0 0 6 1 14 9 11 7 2 2-1 6-5 3-5-3h-6l-18 27-5-2-4-3 1-6 15-24v-3l-9-6 1-4z" fill="#FCFDFD"/>
<path transform="translate(625,354)" d="m0 0h12l16 2 11 3 13 5 6 5v2l-5-1-14-6-14-4-13-2h-14l-20 4-23 9-12 5-18 4h-22l-15-3-18-6-20-9-3-3v-2l6 1 16 7 19 7 16 3h24l15-4 35-14 10-2z" fill="#FCFDFD"/>
<path transform="translate(442,396)" d="m0 0 17 1 16 3 20 8 10 5v4l-8-1-15-7-20-5-8-1h-18l-11 2-5-1 1-4 4-2z" fill="#FCFDFD"/>
<path transform="translate(434,448)" d="m0 0h24l16 3 3 1 1 6-1 1-10-1-11-1h-22l-13 1-1-1v-5l2-2z" fill="#FCFDFD"/>
<path transform="translate(377,467)" d="m0 0h5l1 2-2 5-9 3h-9l-17-5-1-2 2-1h12z" fill="#FCFDFD"/>
<path transform="translate(444,155)" d="m0 0 8 1 4 3-1 5-1 1-11-1-2-2v-5z" fill="#316CE8"/>
<path transform="translate(585,537)" d="m0 0 4 1 1 4-4 6-2 2-4-1-3-2 1-5z" fill="#316CE8"/>
<path transform="translate(271,597)" d="m0 0h3l-2 10-1 1-7-1 1-5z" fill="#316CE8"/>
<path transform="translate(405,635)" d="m0 0h3l3 7v5l-5 1-2-1z" fill="#316CE8"/>
</svg>
