<svg width="200" height="200" viewBox="0 0 200 200" fill="none" xmlns="http://www.w3.org/2000/svg">
<g clip-path="url(#clip0_261_8122)">
<g clip-path="url(#clip1_261_8122)">
<path fill-rule="evenodd" clip-rule="evenodd" d="M130.708 179.827C118.706 186.891 104.723 190.946 89.7909 190.946C72.4108 190.946 56.3176 185.452 43.1354 176.116C36.6535 171.527 29.5257 167.929 21.8566 165.873L2.24707 160.619L7.52279 140.929C9.57658 133.271 9.9874 125.315 9.26085 117.423C9.04004 115.003 8.9237 112.553 8.9237 110.074C8.9237 77.4795 28.2056 49.3841 55.9805 36.596C63.1937 33.2743 69.8774 28.9032 75.4927 23.2879L89.7933 8.9873L104.094 23.2879C109.709 28.9032 116.393 33.2743 123.606 36.596C151.014 49.2151 170.152 76.7396 170.653 108.784C167.796 108.182 164.833 107.865 161.797 107.865C157.867 107.865 154.061 108.396 150.446 109.39C150.136 81.3854 130.729 57.883 104.683 51.2907C99.9316 50.0513 94.9289 49.4198 89.798 49.4198C84.667 49.4198 79.6644 50.0513 74.9134 51.2907C48.6557 57.9364 29.1458 81.7675 29.1458 110.072C29.1458 115.792 29.9578 121.321 31.4465 126.571H31.4489C31.722 127.571 32.0425 128.561 32.3749 129.551C32.4072 129.646 32.439 129.742 32.4707 129.837C32.5395 130.043 32.6081 130.249 32.6812 130.453C32.9447 131.196 33.2368 131.935 33.5336 132.673C33.8185 133.378 34.1153 134.076 34.4263 134.767L34.4265 134.767C34.6852 135.349 34.944 135.931 35.2241 136.508C35.4897 137.055 35.7727 137.593 36.0544 138.129L36.0931 138.203C36.3044 138.609 36.5181 139.013 36.7413 139.414C37.0903 140.041 37.4441 140.665 37.8145 141.278C37.9001 141.42 37.9879 141.561 38.0756 141.702C38.1192 141.772 38.1629 141.841 38.2062 141.912C40.1698 145.081 42.4111 148.066 44.9089 150.813C44.9232 150.825 44.9351 150.839 44.947 150.853C56.0493 163.05 72.0475 170.722 89.7956 170.722C101.078 170.722 111.654 167.622 120.714 162.23C122.606 168.905 126.081 174.914 130.708 179.827Z" fill="#E75225"/>
<g clip-path="url(#clip2_261_8122)">
<path d="M121.771 138.517C105.882 156.164 78.6965 157.588 61.0502 141.7C43.4039 125.811 41.9791 98.6252 57.868 80.9788C73.7568 63.3325 100.942 61.9078 118.589 77.7966C136.235 93.6854 137.66 120.871 121.771 138.517ZM72.5656 94.2127C63.9857 103.742 64.755 118.422 74.2841 127.002C83.8131 135.582 98.4933 134.812 107.073 125.283C115.653 115.754 114.884 101.074 105.355 92.4943C95.8258 83.9143 81.1456 84.6837 72.5656 94.2127Z" fill="#E75225"/>
<path opacity="0.4" d="M132.6 114.033C131.548 124.538 126.668 134.288 118.89 141.426C111.111 148.564 100.979 152.591 90.4225 152.739L90.1451 132.963C95.8454 132.883 101.317 130.709 105.517 126.854C109.718 123 112.353 117.734 112.921 112.062L132.6 114.033Z" fill="white"/>
<path opacity="0.6" d="M90.4242 152.739C79.5648 152.892 69.05 148.929 60.9923 141.647C52.9346 134.366 47.9311 124.304 46.9872 113.485L66.69 111.766C67.1998 117.608 69.9016 123.042 74.2528 126.974C78.6039 130.906 84.282 133.046 90.146 132.963L90.4242 152.739Z" fill="white"/>
</g>
</g>
<rect x="125.841" y="114.607" width="71.9101" height="71.9101" rx="35.9551" fill="#242E42"/>
<path fill-rule="evenodd" clip-rule="evenodd" d="M155.451 165.368V168.541C155.451 169.709 154.504 170.656 153.336 170.656H142.761C141.593 170.656 140.646 169.709 140.646 168.541V157.966C140.646 156.798 141.593 155.851 142.761 155.851H145.934V143.912C142.876 143.002 140.646 140.169 140.646 136.816C140.646 132.727 143.96 129.413 148.049 129.413C151.402 129.413 154.234 131.643 155.144 134.701H167.084V131.528C167.084 130.36 168.03 129.413 169.199 129.413H179.774C180.942 129.413 181.889 130.36 181.889 131.528V142.103C181.889 143.271 180.942 144.218 179.774 144.218H176.601V156.908L182.946 163.253L174.486 171.713L168.141 165.368H155.451ZM150.164 143.912C152.551 143.201 154.434 141.318 155.144 138.931H167.084V142.103C167.084 143.271 168.03 144.218 169.199 144.218H172.371V156.908L168.141 161.138H155.451V157.966C155.451 156.798 154.504 155.851 153.336 155.851H150.164V143.912ZM144.876 166.426V160.081H151.221V166.426H144.876ZM177.659 139.988H171.314V133.643H177.659V139.988Z" fill="white"/>
</g>
<defs>
<clipPath id="clip0_261_8122">
<rect width="195.506" height="182.022" fill="white" transform="translate(2.24658 8.98828)"/>
</clipPath>
<clipPath id="clip1_261_8122">
<rect width="168.539" height="182.022" fill="white" transform="translate(2.24658 8.98828)"/>
</clipPath>
<clipPath id="clip2_261_8122">
<rect width="87.4607" height="87.4607" fill="white" transform="translate(86.5537 47.957) rotate(42)"/>
</clipPath>
</defs>
</svg>
