<svg width="201" height="201" viewBox="0 0 201 201" fill="none" xmlns="http://www.w3.org/2000/svg">
<g clip-path="url(#clip0_259_7905)">
<g clip-path="url(#clip1_259_7905)">
<path fill-rule="evenodd" clip-rule="evenodd" d="M131.209 180.329C119.206 187.392 105.224 191.448 90.2909 191.448C72.9108 191.448 56.8176 185.954 43.6354 176.618C37.1535 172.029 30.0257 168.431 22.3566 166.375L2.74707 161.121L8.02279 141.431C10.0766 133.773 10.4874 125.817 9.76085 117.925C9.54004 115.505 9.4237 113.055 9.4237 110.576C9.4237 77.9815 28.7056 49.8861 56.4805 37.098C63.6937 33.7763 70.3774 29.4051 75.9927 23.7898L90.2933 9.48926L104.594 23.7898C110.209 29.4051 116.893 33.7763 124.106 37.098C151.513 49.7169 170.651 77.2408 171.153 109.285C168.296 108.683 165.334 108.366 162.298 108.366C158.367 108.366 154.561 108.897 150.946 109.891C150.636 81.8869 131.229 58.3849 105.183 51.7927C100.432 50.5533 95.4289 49.9217 90.298 49.9217C85.167 49.9217 80.1644 50.5533 75.4134 51.7927C49.1557 58.4384 29.6458 82.2695 29.6458 110.574C29.6458 116.294 30.4578 121.823 31.9465 127.073H31.9489C32.222 128.073 32.5425 129.063 32.8749 130.053C32.9072 130.148 32.939 130.243 32.9707 130.339C33.0395 130.545 33.1081 130.75 33.1812 130.955C33.4447 131.698 33.7368 132.437 34.0336 133.175C34.3185 133.88 34.6153 134.578 34.9263 135.269L34.9265 135.269C35.1852 135.851 35.444 136.433 35.7241 137.01C35.9897 137.557 36.2727 138.095 36.5544 138.631L36.5931 138.705C36.8044 139.111 37.0181 139.514 37.2413 139.916C37.5903 140.543 37.9441 141.167 38.3145 141.78C38.4001 141.922 38.4879 142.063 38.5756 142.204C38.6192 142.273 38.6629 142.343 38.7062 142.414C40.6698 145.583 42.9111 148.568 45.4089 151.315C45.4232 151.327 45.4351 151.341 45.447 151.355C56.5493 163.552 72.5475 171.224 90.2956 171.224C101.579 171.224 112.155 168.124 121.215 162.731C123.107 169.406 126.583 175.416 131.209 180.329Z" fill="#E75225"/>
<g clip-path="url(#clip2_259_7905)">
<path d="M122.275 139.02C106.386 156.667 79.2004 158.091 61.5541 142.203C43.9078 126.314 42.483 99.1281 58.3719 81.4818C74.2607 63.8354 101.446 62.4107 119.093 78.2995C136.739 94.1883 138.164 121.374 122.275 139.02ZM73.0695 94.7156C64.4896 104.245 65.2589 118.925 74.788 127.505C84.317 136.085 98.9972 135.315 107.577 125.786C116.157 116.257 115.388 101.577 105.859 92.9972C96.3297 84.4172 81.6495 85.1866 73.0695 94.7156Z" fill="#E75225"/>
<path opacity="0.4" d="M133.104 114.536C132.052 125.041 127.172 134.791 119.394 141.929C111.615 149.067 101.483 153.094 90.9264 153.242L90.649 133.466C96.3493 133.386 101.821 131.212 106.021 127.357C110.222 123.503 112.857 118.237 113.425 112.565L133.104 114.536Z" fill="white"/>
<path opacity="0.6" d="M90.9281 153.242C80.0687 153.394 69.5539 149.432 61.4962 142.15C53.4385 134.869 48.435 124.807 47.4911 113.988L67.1939 112.269C67.7037 118.111 70.4055 123.545 74.7567 127.477C79.1078 131.409 84.7859 133.548 90.6499 133.466L90.9281 153.242Z" fill="white"/>
</g>
</g>
<rect x="126.343" y="115.106" width="71.9101" height="71.9101" rx="35.9551" fill="#242E42"/>
<path d="M159.125 130.969C159.125 129.217 160.546 127.797 162.298 127.797C164.05 127.797 165.47 129.217 165.47 130.969V133.399C172.776 134.871 178.278 141.325 178.278 149.064V159.895L180.275 165.867H144.32L146.318 159.895V149.064C146.318 141.325 151.82 134.871 159.125 133.399V130.969Z" fill="white"/>
<path d="M162.298 174.327C158.944 174.327 156.112 172.097 155.202 169.039H169.394C168.484 172.097 165.651 174.327 162.298 174.327Z" fill="white"/>
</g>
<defs>
<clipPath id="clip0_259_7905">
<rect width="195.506" height="182.022" fill="white" transform="translate(2.74707 9.48828)"/>
</clipPath>
<clipPath id="clip1_259_7905">
<rect width="168.539" height="182.022" fill="white" transform="translate(2.74707 9.48828)"/>
</clipPath>
<clipPath id="clip2_259_7905">
<rect width="87.4607" height="87.4607" fill="white" transform="translate(87.0562 48.459) rotate(42)"/>
</clipPath>
</defs>
</svg>
