<svg width="200" height="200" viewBox="0 0 200 200" fill="none" xmlns="http://www.w3.org/2000/svg">
<g clip-path="url(#clip0_160_4382)">
<path fill-rule="evenodd" clip-rule="evenodd" d="M21.0527 20.8333C16.2081 20.8333 12.2808 24.7606 12.2808 29.6052V82.2368H187.719V29.6052C187.719 24.7606 183.792 20.8333 178.947 20.8333H21.0527Z" fill="#55BC8A"/>
<path d="M187.72 95.395H12.2812V112.939H49.5612V131.612C49.5612 131.984 49.4667 132.349 49.2868 132.674L42.9193 144.177C41.5366 143.827 40.0885 143.641 38.5969 143.641C28.9077 143.641 21.0531 151.495 21.0531 161.184C21.0531 170.874 28.9077 178.728 38.5969 178.728C48.2861 178.728 56.1408 170.874 56.1408 161.184C56.1408 157.846 55.2084 154.726 53.5899 152.069L60.7985 139.047C62.0582 136.772 62.719 134.213 62.719 131.612V112.939H93.4215V153.688C86.992 156.29 82.4566 162.594 82.4566 169.956C82.4566 179.646 90.3112 187.5 100 187.5C109.69 187.5 117.544 179.646 117.544 169.956C117.544 162.594 113.009 156.29 106.579 153.688V112.939H137.282V131.612C137.282 134.213 137.943 136.772 139.202 139.047L146.411 152.069C144.792 154.726 143.86 157.846 143.86 161.184C143.86 170.874 151.715 178.728 161.404 178.728C171.093 178.728 178.948 170.874 178.948 161.184C178.948 151.495 171.093 143.641 161.404 143.641C159.912 143.641 158.464 143.827 157.082 144.177L150.714 132.674C150.534 132.349 150.44 131.984 150.44 131.612V112.939H187.72V95.395Z" fill="#324558"/>
<rect x="12.2812" y="95.395" width="175.439" height="17.5356" fill="#55BC8A"/>
<path d="M95.8426 38.377H122.158V55.9208H95.8426V38.377Z" fill="#A8DDC3"/>
<path d="M29.8251 38.377H82.4567V55.9208H29.8251V38.377Z" fill="white"/>
<rect opacity="0.2" x="12.2812" y="95.395" width="58.4795" height="17.5356" fill="white"/>
<rect opacity="0.4" x="70.7615" y="95.395" width="58.4795" height="17.5356" fill="white"/>
<rect opacity="0.6" x="129.241" y="95.395" width="58.4795" height="17.5356" fill="white"/>
</g>
<defs>
<clipPath id="clip0_160_4382">
<rect width="175.439" height="166.667" fill="white" transform="translate(12.2808 20.8333)"/>
</clipPath>
</defs>
</svg>
