<svg width="200" height="200" viewBox="0 0 200 200" fill="none" xmlns="http://www.w3.org/2000/svg">
<path fill-rule="evenodd" clip-rule="evenodd" d="M170.021 150.791V173.871L144.578 173.866V138.301L170.021 150.791Z" fill="#EDAD3B"/>
<path fill-rule="evenodd" clip-rule="evenodd" d="M88.8666 93.4131H55.4581V50.7256H88.8666C91.9775 50.7256 94.6929 51.3056 97.0254 52.4731C99.3579 53.6356 101.267 55.1906 102.754 57.1306C104.243 59.0706 105.344 61.3331 106.058 63.9206C106.768 66.5081 107.126 69.2256 107.126 72.0681C107.126 74.7856 106.768 77.4381 106.058 80.0231C105.344 82.6156 104.243 84.9081 102.754 86.9131C101.267 88.9181 99.3579 90.5031 97.0254 91.6656C94.6929 92.8281 91.9775 93.4131 88.8666 93.4131ZM107.029 28.8006C101.783 26.4706 95.7315 25.3081 88.8666 25.3081H30.0156V173.871H55.4581V117.278H88.8666C95.9893 117.278 102.171 116.016 107.417 113.496C112.662 110.973 117.034 107.608 120.528 103.406C124.024 99.2006 126.615 94.2856 128.299 88.6581C129.978 83.0331 130.824 77.1131 130.824 70.9056C130.824 64.5681 129.918 58.6156 128.101 53.0531C126.287 47.4931 123.637 42.6431 120.14 38.5006C116.644 34.3631 112.272 31.1306 107.029 28.8006ZM144.578 25.3086V112.224L170.021 124.719V25.3086H144.578Z" fill="#4C3792"/>
</svg>
