<svg width="200" height="200" viewBox="0 0 200 200" fill="none" xmlns="http://www.w3.org/2000/svg">
<path fill-rule="evenodd" clip-rule="evenodd" d="M99.5361 13.7861L174.198 56.8923L142.278 75.3212L67.6175 32.2158L56.7922 38.4658L88.7085 56.8927L56.7924 75.3194L67.6177 81.5694L99.5338 63.1427L131.453 81.5712L99.5361 99.9985L24.8741 56.8923L99.5361 13.7861Z" fill="#99D7B9"/>
<path fill-rule="evenodd" clip-rule="evenodd" d="M24.8749 56.895L99.5369 100.001L99.5369 186.214L67.6185 167.785L67.6185 130.929L99.5361 149.357L99.5361 136.857L67.6185 118.429L67.6185 81.5735L56.7932 75.3235L56.7932 161.535L24.8749 143.107L24.8749 56.895Z" fill="#80CDA7"/>
<path fill-rule="evenodd" clip-rule="evenodd" d="M99.5361 100L174.198 56.8943L174.198 143.107L99.5361 186.213L99.5361 149.356L174.197 106.25L174.197 93.7505L142.279 112.178L142.279 75.324L131.454 81.574L131.454 118.428L99.5361 136.856L99.5361 100Z" fill="#55BC8A"/>
<path d="M173.286 48.7974L107.002 10.5284C102.382 7.86091 96.6893 7.8609 92.0691 10.5284L25.7852 48.7974C21.1651 51.4648 18.3189 56.3945 18.3189 61.7294V138.267C18.3189 143.602 21.165 148.532 25.7852 151.199L92.0691 189.469C96.6893 192.136 102.382 192.136 107.002 189.469L173.286 151.199C177.906 148.532 180.752 143.602 180.752 138.267V61.7294C180.752 56.3945 177.906 51.4648 173.286 48.7974Z" stroke="#324558" stroke-width="13.75"/>
</svg>
