<svg width="200" height="201" viewBox="0 0 200 201" fill="none" xmlns="http://www.w3.org/2000/svg">
<path d="M107.712 27.0432L101.227 16.3569L34.5502 56.8187L41.035 67.5051L107.712 27.0432Z" fill="#324558"/>
<path d="M106.25 104.875L99.7655 94.1885L33.0884 134.65L39.5732 145.337L106.25 104.875Z" fill="#BBE4D0"/>
<path d="M171.668 145.336L165.183 134.65L98.5059 175.112L104.991 185.798L171.668 145.336Z" fill="#324558"/>
<path d="M96.0841 185.798L102.334 174.973L34.7897 135.976L28.5397 146.802L96.0841 185.798Z" fill="#324558"/>
<path d="M164.528 68.9268L170.778 58.1014L110.046 23.0377L103.796 33.863L164.528 68.9268Z" fill="#324558"/>
<path d="M38.7059 63.4659H26.2059V141.728H38.7059V63.4659Z" fill="#324558"/>
<path d="M167.614 80.4198C176.829 80.4198 184.3 72.9496 184.3 63.7346C184.3 54.5197 176.829 47.0494 167.614 47.0494C158.399 47.0494 150.929 54.5197 150.929 63.7346C150.929 72.9496 158.399 80.4198 167.614 80.4198Z" fill="#55BC8A"/>
<path d="M32.386 80.4198C41.601 80.4198 49.0712 72.9496 49.0712 63.7346C49.0712 54.5197 41.601 47.0494 32.386 47.0494C23.171 47.0494 15.7008 54.5197 15.7008 63.7346C15.7008 72.9496 23.171 80.4198 32.386 80.4198Z" fill="#324558"/>
<path d="M99.9996 197.507C109.215 197.507 116.685 190.037 116.685 180.822C116.685 171.607 109.215 164.137 99.9996 164.137C90.7847 164.137 83.3145 171.607 83.3145 180.822C83.3145 190.037 90.7847 197.507 99.9996 197.507Z" fill="#324558"/>
<path d="M104.735 98.6838L98.5067 109.521L166.361 148.518L172.59 137.681L104.735 98.6838Z" fill="#BBE4D0"/>
<path d="M39.3649 128.911L28.5396 135.161L36.2516 148.519L47.0769 142.269L39.3649 128.911Z" fill="#324558"/>
<path d="M106.25 24.7375H93.7505V102.731H106.25V24.7375Z" fill="#BBE4D0"/>
<path d="M100 129.699C114.894 129.699 126.968 117.625 126.968 102.731C126.968 87.8374 114.894 75.7634 100 75.7634C85.106 75.7634 73.0321 87.8374 73.0321 102.731C73.0321 117.625 85.106 129.699 100 129.699Z" fill="#55BC8A"/>
<path d="M32.3865 162.972C44.1195 162.972 53.631 153.461 53.631 141.728C53.631 129.995 44.1195 120.483 32.3865 120.483C20.6535 120.483 11.142 129.995 11.142 141.728C11.142 153.461 20.6535 162.972 32.3865 162.972Z" fill="#55BC8A"/>
<path d="M167.613 162.972C179.346 162.972 188.858 153.461 188.858 141.728C188.858 129.995 179.346 120.483 167.613 120.483C155.88 120.483 146.369 129.995 146.369 141.728C146.369 153.461 155.88 162.972 167.613 162.972Z" fill="#55BC8A"/>
<path d="M99.9996 45.9823C111.733 45.9823 121.244 36.4708 121.244 24.7378C121.244 13.0048 111.733 3.49329 99.9996 3.49329C88.2666 3.49329 78.7551 13.0048 78.7551 24.7378C78.7551 36.4708 88.2666 45.9823 99.9996 45.9823Z" fill="#55BC8A"/>
</svg>
