<svg width="201" height="201" viewBox="0 0 201 201" fill="none" xmlns="http://www.w3.org/2000/svg">
<g clip-path="url(#clip0_259_8059)">
<g clip-path="url(#clip1_259_8059)">
<path fill-rule="evenodd" clip-rule="evenodd" d="M131.459 180.329C119.456 187.392 105.474 191.448 90.5409 191.448C73.1608 191.448 57.0676 185.954 43.8854 176.618C37.4035 172.029 30.2757 168.431 22.6066 166.375L2.99707 161.121L8.27279 141.431C10.3266 133.773 10.7374 125.817 10.0109 117.925C9.79004 115.505 9.6737 113.055 9.6737 110.576C9.6737 77.9815 28.9556 49.8861 56.7305 37.098C63.9437 33.7763 70.6274 29.4051 76.2427 23.7898L90.5433 9.48926L104.844 23.7898C110.459 29.4051 117.143 33.7763 124.356 37.098C151.763 49.7169 170.901 77.2408 171.403 109.285C168.546 108.683 165.584 108.366 162.548 108.366C158.617 108.366 154.811 108.897 151.196 109.891C150.886 81.8869 131.479 58.3849 105.433 51.7927C100.682 50.5533 95.6789 49.9217 90.548 49.9217C85.417 49.9217 80.4144 50.5533 75.6634 51.7927C49.4057 58.4384 29.8958 82.2695 29.8958 110.574C29.8958 116.294 30.7078 121.823 32.1965 127.073H32.1989C32.472 128.073 32.7925 129.063 33.1249 130.053C33.1572 130.148 33.189 130.243 33.2207 130.339C33.2895 130.545 33.3581 130.75 33.4312 130.955C33.6947 131.698 33.9868 132.437 34.2836 133.175C34.5685 133.88 34.8653 134.578 35.1763 135.269L35.1765 135.269C35.4352 135.851 35.694 136.433 35.9741 137.01C36.2397 137.557 36.5227 138.095 36.8044 138.631L36.8431 138.705C37.0544 139.111 37.2681 139.514 37.4913 139.916C37.8403 140.543 38.1941 141.167 38.5645 141.78C38.6501 141.922 38.7379 142.063 38.8256 142.204C38.8692 142.273 38.9129 142.343 38.9562 142.414C40.9198 145.583 43.1611 148.568 45.6589 151.315C45.6732 151.327 45.6851 151.341 45.697 151.355C56.7993 163.552 72.7975 171.224 90.5456 171.224C101.829 171.224 112.405 168.124 121.465 162.731C123.357 169.406 126.833 175.416 131.459 180.329Z" fill="#E75225"/>
<g clip-path="url(#clip2_259_8059)">
<path d="M122.525 139.02C106.636 156.667 79.4504 158.091 61.8041 142.203C44.1578 126.314 42.733 99.1281 58.6219 81.4818C74.5107 63.8354 101.696 62.4107 119.343 78.2995C136.989 94.1883 138.414 121.374 122.525 139.02ZM73.3195 94.7156C64.7396 104.245 65.5089 118.925 75.038 127.505C84.567 136.085 99.2472 135.315 107.827 125.786C116.407 116.257 115.638 101.577 106.109 92.9972C96.5797 84.4172 81.8995 85.1866 73.3195 94.7156Z" fill="#E75225"/>
<path opacity="0.4" d="M133.354 114.536C132.302 125.041 127.422 134.791 119.644 141.929C111.865 149.067 101.733 153.094 91.1764 153.242L90.899 133.466C96.5993 133.386 102.071 131.212 106.271 127.357C110.472 123.503 113.107 118.237 113.675 112.565L133.354 114.536Z" fill="white"/>
<path opacity="0.6" d="M91.1781 153.242C80.3187 153.394 69.8039 149.432 61.7462 142.15C53.6885 134.869 48.685 124.807 47.7411 113.988L67.4439 112.269C67.9537 118.111 70.6555 123.545 75.0067 127.477C79.3578 131.409 85.0359 133.548 90.8999 133.466L91.1781 153.242Z" fill="white"/>
</g>
</g>
<rect x="126.593" y="115.106" width="71.9101" height="71.9101" rx="35.9551" fill="#242E42"/>
<path d="M145.628 132.027C145.628 130.859 146.575 129.912 147.743 129.912H165.72V143.66H179.468V170.097C179.468 171.265 178.521 172.212 177.353 172.212H147.743C146.575 172.212 145.628 171.265 145.628 170.097V132.027Z" fill="white"/>
<path d="M179.468 140.487H168.893V129.912L179.468 140.487Z" fill="white"/>
</g>
<defs>
<clipPath id="clip0_259_8059">
<rect width="195.506" height="182.022" fill="white" transform="translate(2.99707 9.48828)"/>
</clipPath>
<clipPath id="clip1_259_8059">
<rect width="168.539" height="182.022" fill="white" transform="translate(2.99707 9.48828)"/>
</clipPath>
<clipPath id="clip2_259_8059">
<rect width="87.4607" height="87.4607" fill="white" transform="translate(87.3062 48.459) rotate(42)"/>
</clipPath>
</defs>
</svg>
