<svg width="200" height="200" viewBox="0 0 200 200" fill="none" xmlns="http://www.w3.org/2000/svg">
<g clip-path="url(#clip0_284_9767)">
<g clip-path="url(#clip1_284_9767)">
<path fill-rule="evenodd" clip-rule="evenodd" d="M130.709 179.829C118.706 186.892 104.724 190.948 89.7909 190.948C72.4108 190.948 56.3176 185.454 43.1354 176.118C36.6535 171.529 29.5257 167.931 21.8566 165.875L2.24707 160.621L7.52279 140.931C9.57658 133.273 9.9874 125.317 9.26085 117.425C9.04004 115.005 8.9237 112.555 8.9237 110.076C8.9237 77.4815 28.2056 49.3861 55.9805 36.598C63.1937 33.2763 69.8774 28.9051 75.4927 23.2898L89.7933 8.98926L104.094 23.2898C109.709 28.9051 116.393 33.2763 123.606 36.598C151.013 49.2169 170.151 76.7408 170.653 108.785C167.796 108.183 164.834 107.866 161.798 107.866C157.867 107.866 154.061 108.397 150.446 109.391C150.136 81.3869 130.729 57.8849 104.683 51.2927C99.9316 50.0533 94.9289 49.4217 89.798 49.4217C84.667 49.4217 79.6644 50.0533 74.9134 51.2927C48.6557 57.9384 29.1458 81.7695 29.1458 110.074C29.1458 115.794 29.9578 121.323 31.4465 126.573H31.4489C31.722 127.573 32.0425 128.563 32.3749 129.553C32.4072 129.648 32.439 129.743 32.4707 129.839C32.5395 130.045 32.6081 130.25 32.6812 130.455C32.9447 131.198 33.2368 131.937 33.5336 132.675C33.8185 133.38 34.1153 134.078 34.4263 134.769L34.4265 134.769C34.6852 135.351 34.944 135.933 35.2241 136.51C35.4897 137.057 35.7727 137.595 36.0544 138.131L36.0931 138.205C36.3044 138.611 36.5181 139.014 36.7413 139.416C37.0903 140.043 37.4441 140.667 37.8145 141.28C37.9001 141.422 37.9879 141.563 38.0756 141.704C38.1192 141.773 38.1629 141.843 38.2062 141.914C40.1698 145.083 42.4111 148.068 44.9089 150.815C44.9232 150.827 44.9351 150.841 44.947 150.855C56.0493 163.052 72.0475 170.724 89.7956 170.724C101.079 170.724 111.655 167.624 120.715 162.231C122.607 168.906 126.083 174.916 130.709 179.829Z" fill="#E75225"/>
<g clip-path="url(#clip2_284_9767)">
<path d="M121.775 138.52C105.886 156.167 78.7004 157.591 61.0541 141.703C43.4078 125.814 41.983 98.6281 57.8719 80.9818C73.7607 63.3354 100.946 61.9107 118.593 77.7995C136.239 93.6883 137.664 120.874 121.775 138.52ZM72.5695 94.2156C63.9896 103.745 64.7589 118.425 74.288 127.005C83.817 135.585 98.4972 134.815 107.077 125.286C115.657 115.757 114.888 101.077 105.359 92.4972C95.8297 83.9172 81.1495 84.6866 72.5695 94.2156Z" fill="#E75225"/>
<path opacity="0.4" d="M132.604 114.036C131.552 124.541 126.672 134.291 118.894 141.429C111.115 148.567 100.983 152.594 90.4264 152.742L90.149 132.966C95.8493 132.886 101.321 130.712 105.521 126.857C109.722 123.003 112.357 117.737 112.925 112.065L132.604 114.036Z" fill="white"/>
<path opacity="0.6" d="M90.4281 152.742C79.5687 152.894 69.0539 148.932 60.9962 141.65C52.9385 134.369 47.935 124.307 46.9911 113.488L66.6939 111.769C67.2037 117.611 69.9055 123.045 74.2567 126.977C78.6078 130.909 84.2859 133.048 90.1499 132.966L90.4281 152.742Z" fill="white"/>
</g>
</g>
<rect x="125.843" y="114.606" width="71.9101" height="71.9101" rx="35.9551" fill="#242E42"/>
<path d="M162.847 130.011C162.197 129.64 161.399 129.64 160.749 130.011L141.197 141.183C140.487 141.589 140.487 142.614 141.197 143.02L161.798 154.792L182.399 143.02C183.109 142.614 183.109 141.589 182.399 141.183L162.847 130.011Z" fill="white"/>
<path d="M161.798 158.446L151.198 152.389L141.197 158.103C140.487 158.509 140.487 159.534 141.197 159.94L160.749 171.112C161.399 171.484 162.197 171.484 162.847 171.112L182.399 159.94C183.109 159.534 183.109 158.509 182.399 158.103L172.398 152.389L161.798 158.446Z" fill="white"/>
</g>
<defs>
<clipPath id="clip0_284_9767">
<rect width="195.506" height="182.022" fill="white" transform="translate(2.24707 8.98828)"/>
</clipPath>
<clipPath id="clip1_284_9767">
<rect width="168.539" height="182.022" fill="white" transform="translate(2.24707 8.98828)"/>
</clipPath>
<clipPath id="clip2_284_9767">
<rect width="87.4607" height="87.4607" fill="white" transform="translate(86.5562 47.959) rotate(42)"/>
</clipPath>
</defs>
</svg>
