<svg width="200" height="201" viewBox="0 0 200 201" fill="none" xmlns="http://www.w3.org/2000/svg">
<path d="M152.547 168.295C134.638 182.18 111.947 188.381 89.4649 185.536C66.9832 182.69 46.5527 171.031 32.6679 153.122C18.783 135.212 12.5812 112.521 15.4268 90.0395C18.2723 67.5579 29.9321 47.1274 47.8411 33.2425L48.7455 32.6396C66.7573 19.1948 89.3427 13.3915 111.605 16.4882C133.867 19.5848 154.011 31.3317 167.67 49.1818C181.328 67.032 187.401 89.5466 184.57 111.844C181.739 134.141 170.233 154.424 152.547 168.295Z" fill="#55BC8A"/>
<path d="M44.525 71.7273C40.979 62.211 38.6494 52.2848 37.5915 42.1846C33.3746 46.6134 29.667 51.5007 26.5381 56.7549C27.6724 64.8927 29.5905 72.9018 32.2658 80.6704C35.4144 76.58 39.6685 73.4766 44.525 71.7273Z" fill="white" fill-opacity="0.6"/>
<path d="M53.7697 124.986C68.9202 124.986 81.2022 112.704 81.2022 97.5531C81.2022 82.4026 68.9202 70.1206 53.7697 70.1206C38.6191 70.1206 26.3372 82.4026 26.3372 97.5531C26.3372 112.704 38.6191 124.986 53.7697 124.986Z" fill="url(#paint0_linear_111_4036)"/>
<path opacity="0.6" d="M93.7636 147.697C93.7673 145.314 94.2496 142.957 95.1817 140.765C96.1138 138.573 97.4768 136.59 99.1898 134.935C89.9258 129.857 81.3769 123.572 73.767 116.245C69.7906 120.547 64.5457 123.468 58.7947 124.585C63.3279 129.225 68.198 133.525 73.3651 137.447C79.7989 142.305 86.6992 146.513 93.9645 150.008C93.8479 149.242 93.7808 148.47 93.7636 147.697Z" fill="white" fill-opacity="0.6"/>
<path opacity="0.6" d="M157.07 149.803C147.732 149.809 138.425 148.729 129.336 146.587C129.385 146.954 129.385 147.326 129.336 147.693C129.343 150.005 128.893 152.295 128.014 154.433C127.135 156.571 125.842 158.515 124.211 160.153C135.52 162.394 147.066 163.204 158.577 162.565C163.042 158.526 167.052 154.011 170.535 149.1C166.064 149.596 161.568 149.831 157.07 149.803Z" fill="white" fill-opacity="0.6"/>
<path d="M111.55 165.582C121.429 165.582 129.437 157.574 129.437 147.695C129.437 137.817 121.429 129.809 111.55 129.809C101.672 129.809 93.6641 137.817 93.6641 147.695C93.6641 157.574 101.672 165.582 111.55 165.582Z" fill="url(#paint1_linear_111_4036)"/>
<path opacity="0.6" d="M133.555 100.068C134.442 96.1372 136.596 92.6068 139.685 90.0193C123.139 77.9909 108.093 64.0245 94.8683 48.4184C87.1614 39.3677 80.4255 29.5333 74.7713 19.0767C71.0179 20.2019 67.3563 21.6128 63.8184 23.297C69.8694 34.6826 77.1114 45.394 85.4227 55.2514C99.5488 72.126 115.717 87.1801 133.555 100.068Z" fill="white" fill-opacity="0.6"/>
<path d="M152.245 122.472C162.734 122.472 171.237 113.969 171.237 103.48C171.237 92.9912 162.734 84.4883 152.245 84.4883C141.756 84.4883 133.253 92.9912 133.253 103.48C133.253 113.969 141.756 122.472 152.245 122.472Z" fill="white"/>
<path opacity="0.6" d="M184.1 116.243L180.583 114.534L177.568 112.927H176.965L174.353 110.816H173.649L170.534 108.807C169.455 112.507 167.197 115.753 164.103 118.051C165.309 118.855 166.615 119.559 167.922 120.262L168.725 120.764L172.242 122.674L180.884 127.195C182.102 123.546 183.075 119.82 183.798 116.042L184.1 116.243Z" fill="white"/>
<path d="M76.9815 82.9807C101.141 60.003 133.173 47.1329 166.514 47.007C162.134 41.5891 157.106 36.7294 151.542 32.5371C135.322 33.5377 119.388 37.2749 104.414 43.5905C88.9978 50.2124 75.0592 59.8464 63.416 71.9274C69.0122 74.0514 73.771 77.9289 76.9815 82.9807Z" fill="#324558"/>
<path d="M34.6774 117.35C31.2253 125.898 28.4369 134.7 26.3372 143.677C28.1924 146.902 30.2743 149.991 32.5672 152.921C34.376 155.233 36.0842 157.343 38.0939 159.453C40.5218 147.493 44.1579 135.81 48.9464 124.585C43.5826 123.627 38.6198 121.111 34.6774 117.35Z" fill="#324558"/>
<path d="M53.7697 124.986C68.9202 124.986 81.2022 112.704 81.2022 97.5531C81.2022 82.4026 68.9202 70.1206 53.7697 70.1206C38.6191 70.1206 26.3372 82.4026 26.3372 97.5531C26.3372 112.704 38.6191 124.986 53.7697 124.986Z" fill="#324558"/>
<path d="M111.55 165.582C121.429 165.582 129.437 157.574 129.437 147.695C129.437 137.817 121.429 129.809 111.55 129.809C101.672 129.809 93.6641 137.817 93.6641 147.695C93.6641 157.574 101.672 165.582 111.55 165.582Z" fill="white"/>
<defs>
<linearGradient id="paint0_linear_111_4036" x1="53.9706" y1="125.689" x2="53.6692" y2="85.9973" gradientUnits="userSpaceOnUse">
<stop stop-color="#CCCCCC"/>
<stop offset="1" stop-color="#FCFCFC"/>
</linearGradient>
<linearGradient id="paint1_linear_111_4036" x1="111.55" y1="165.582" x2="111.55" y2="129.91" gradientUnits="userSpaceOnUse">
<stop stop-color="#CCCCCC"/>
<stop offset="1" stop-color="#FCFCFC"/>
</linearGradient>
</defs>
</svg>
