<svg width="200" height="200" viewBox="0 0 200 200" fill="none" xmlns="http://www.w3.org/2000/svg">
<g clip-path="url(#clip0_106_3844)">
<path d="M156.371 41.3273L102.423 10.1735C98.2832 7.78575 93.5881 6.52881 88.8089 6.52881C84.0297 6.52881 79.3346 7.78575 75.1947 10.1735L21.2467 41.3273C17.1091 43.7198 13.6733 47.158 11.2838 51.2973C8.8943 55.4366 7.63509 60.1313 7.63245 64.9108V127.218C7.63327 132 8.89161 136.697 11.2812 140.838C13.6708 144.979 17.1076 148.419 21.2467 150.812L75.2466 181.966C79.3865 184.354 84.0817 185.611 88.8608 185.611C93.64 185.611 98.3351 184.354 102.475 181.966L156.475 150.812C160.614 148.419 164.051 144.979 166.44 140.838C168.83 136.697 170.088 132 170.089 127.218V64.9108C170.076 60.1211 168.801 55.4195 166.393 51.2794C163.985 47.1392 160.528 43.7066 156.371 41.3273Z" fill="#324558"/>
<path d="M181.122 83.8828L142.096 61.3518C138.674 59.3782 134.792 58.3394 130.841 58.3394C126.891 58.3394 123.009 59.3782 119.587 61.3518L80.5712 83.8828C77.1463 85.8527 74.3023 88.692 72.327 92.1137C70.3516 95.5355 69.3149 99.4182 69.3217 103.369V148.431C69.3214 152.381 70.3609 156.261 72.3356 159.682C74.3103 163.102 77.1507 165.943 80.5712 167.918L119.587 190.449C123.009 192.422 126.891 193.461 130.841 193.461C134.792 193.461 138.674 192.422 142.096 190.449L181.122 167.918C184.551 165.948 187.401 163.11 189.385 159.689C191.369 156.269 192.418 152.386 192.425 148.431V103.369C192.419 99.4144 191.371 95.5312 189.387 92.1103C187.402 88.6894 184.552 85.8517 181.122 83.8828Z" fill="#55BC8A"/>
<path d="M85.2354 37.308L96.16 31.2642L142.995 128.329L139.194 132.483H35.9812L37.1443 120.053H124.178L85.2354 37.308Z" fill="white" fill-opacity="0.5"/>
<path d="M34.9124 142.421C43.5152 142.421 50.4893 135.447 50.4893 126.844C50.4893 118.241 43.5152 111.267 34.9124 111.267C26.3095 111.267 19.3354 118.241 19.3354 126.844C19.3354 135.447 26.3095 142.421 34.9124 142.421Z" fill="white"/>
<path d="M130.874 150.242C144.317 150.242 155.215 139.344 155.215 125.9C155.215 112.457 144.317 101.559 130.874 101.559C117.43 101.559 106.532 112.457 106.532 125.9C106.532 139.344 117.43 150.242 130.874 150.242Z" fill="white"/>
<path d="M90.0438 48.6792C98.6467 48.6792 105.621 41.7052 105.621 33.1023C105.621 24.4994 98.6467 17.5254 90.0438 17.5254C81.4409 17.5254 74.4669 24.4994 74.4669 33.1023C74.4669 41.7052 81.4409 48.6792 90.0438 48.6792Z" fill="white"/>
</g>
<defs>
<clipPath id="clip0_106_3844">
<rect width="184.793" height="186.933" fill="white" transform="translate(7.63245 6.52881)"/>
</clipPath>
</defs>
</svg>
