<svg width="201" height="201" viewBox="0 0 201 201" fill="none" xmlns="http://www.w3.org/2000/svg">
<g clip-path="url(#clip0_261_8154)">
<g clip-path="url(#clip1_261_8154)">
<path fill-rule="evenodd" clip-rule="evenodd" d="M130.959 180.329C118.956 187.392 104.974 191.448 90.0409 191.448C72.6608 191.448 56.5676 185.954 43.3854 176.618C36.9035 172.029 29.7757 168.431 22.1066 166.375L2.49707 161.121L7.77279 141.431C9.82658 133.773 10.2374 125.817 9.51085 117.925C9.29004 115.505 9.1737 113.055 9.1737 110.576C9.1737 77.9815 28.4556 49.8861 56.2305 37.098C63.4437 33.7763 70.1274 29.4051 75.7427 23.7898L90.0433 9.48926L104.344 23.7898C109.959 29.4051 116.643 33.7763 123.856 37.098C151.263 49.7169 170.401 77.2408 170.903 109.285C168.046 108.683 165.084 108.366 162.048 108.366C158.117 108.366 154.311 108.897 150.696 109.891C150.386 81.8869 130.979 58.3849 104.933 51.7927C100.182 50.5533 95.1789 49.9217 90.048 49.9217C84.917 49.9217 79.9144 50.5533 75.1634 51.7927C48.9057 58.4384 29.3958 82.2695 29.3958 110.574C29.3958 116.294 30.2078 121.823 31.6965 127.073H31.6989C31.972 128.073 32.2925 129.063 32.6249 130.053C32.6572 130.148 32.689 130.243 32.7207 130.339C32.7895 130.545 32.8581 130.75 32.9312 130.955C33.1947 131.698 33.4868 132.437 33.7836 133.175C34.0685 133.88 34.3653 134.578 34.6763 135.269L34.6765 135.269C34.9352 135.851 35.194 136.433 35.4741 137.01C35.7397 137.557 36.0227 138.095 36.3044 138.631L36.3431 138.705C36.5544 139.111 36.7681 139.514 36.9913 139.916C37.3403 140.543 37.6941 141.167 38.0645 141.78C38.1501 141.922 38.2379 142.063 38.3256 142.204C38.3692 142.273 38.4129 142.343 38.4562 142.414C40.4198 145.583 42.6611 148.568 45.1589 151.315C45.1732 151.327 45.1851 151.341 45.197 151.355C56.2993 163.552 72.2975 171.224 90.0456 171.224C101.329 171.224 111.905 168.124 120.965 162.731C122.857 169.406 126.333 175.416 130.959 180.329Z" fill="#E75225"/>
<g clip-path="url(#clip2_261_8154)">
<path d="M122.025 139.02C106.136 156.667 78.9504 158.091 61.3041 142.203C43.6578 126.314 42.233 99.1281 58.1219 81.4818C74.0107 63.8354 101.196 62.4107 118.843 78.2995C136.489 94.1883 137.914 121.374 122.025 139.02ZM72.8195 94.7156C64.2396 104.245 65.0089 118.925 74.538 127.505C84.067 136.085 98.7472 135.315 107.327 125.786C115.907 116.257 115.138 101.577 105.609 92.9972C96.0797 84.4172 81.3995 85.1866 72.8195 94.7156Z" fill="#E75225"/>
<path opacity="0.4" d="M132.854 114.536C131.802 125.041 126.922 134.791 119.144 141.929C111.365 149.067 101.233 153.094 90.6764 153.242L90.399 133.466C96.0993 133.386 101.571 131.212 105.771 127.357C109.972 123.503 112.607 118.237 113.175 112.565L132.854 114.536Z" fill="white"/>
<path opacity="0.6" d="M90.6781 153.242C79.8187 153.394 69.3039 149.432 61.2462 142.15C53.1885 134.869 48.185 124.807 47.2411 113.988L66.9439 112.269C67.4537 118.111 70.1555 123.545 74.5067 127.477C78.8578 131.409 84.5359 133.548 90.3999 133.466L90.6781 153.242Z" fill="white"/>
</g>
</g>
<rect x="126.093" y="115.106" width="71.9101" height="71.9101" rx="35.9551" fill="#242E42"/>
<path d="M173.208 155.226C174.718 152.763 176.178 149.478 175.891 144.88C175.296 135.355 166.669 128.13 158.523 128.913C155.334 129.219 152.059 131.819 152.35 136.475C152.477 138.498 153.467 139.692 155.076 140.611C156.608 141.484 158.576 142.038 160.808 142.666L161.003 142.721C163.653 143.465 166.687 144.318 169.032 146.046C171.911 148.168 173.88 150.628 173.208 155.226Z" fill="white"/>
<path d="M182.685 145.163C181.818 145.163 181.115 145.866 181.115 146.733C181.115 159.655 170.64 170.129 157.719 170.129C156.852 170.129 156.149 170.832 156.149 171.699C156.149 172.567 156.852 173.27 157.719 173.27C172.375 173.27 184.255 161.389 184.255 146.733C184.255 145.866 183.552 145.163 182.685 145.163Z" fill="white"/>
<path d="M139.877 148.916C139.589 144.318 141.05 141.034 142.56 138.57C141.888 143.168 143.857 145.628 146.736 147.751C149.081 149.478 152.115 150.331 154.764 151.076C154.83 151.094 154.895 151.112 154.96 151.131C157.191 151.758 159.16 152.312 160.692 153.186C162.301 154.104 163.291 155.298 163.418 157.321C163.709 161.978 160.434 164.577 157.245 164.884C149.099 165.667 140.472 158.441 139.877 148.916Z" fill="white"/>
</g>
<defs>
<clipPath id="clip0_261_8154">
<rect width="195.506" height="182.022" fill="white" transform="translate(2.49707 9.48828)"/>
</clipPath>
<clipPath id="clip1_261_8154">
<rect width="168.539" height="182.022" fill="white" transform="translate(2.49707 9.48828)"/>
</clipPath>
<clipPath id="clip2_261_8154">
<rect width="87.4607" height="87.4607" fill="white" transform="translate(86.8062 48.459) rotate(42)"/>
</clipPath>
</defs>
</svg>
